<mxfile host="app.diagrams.net" modified="2024-04-19T10:41:10.564Z" agent="Mozilla/5.0 (Windows NT 10.0; Win64; x64) AppleWebKit/537.36 (KHTML, like Gecko) Chrome/123.0.0.0 Safari/537.36 Edg/123.0.0.0" version="24.2.5" etag="6Gnc2pEHtkV1XjwFEkPS" type="github">
  <diagram name="第 1 页" id="wCAXER8XMt7L9X_sIx5C">
    <mxGraphModel>
      <root>
        <mxCell id="0" />
        <mxCell id="1" parent="0" />
      </root>
    </mxGraphModel>
  </diagram>
</mxfile>
